<?xml version="1.0" standalone="no"?>
<!DOCTYPE svg PUBLIC "-//W3C//DTD SVG 20010904//EN"
 "http://www.w3.org/TR/2001/REC-SVG-20010904/DTD/svg10.dtd">
<svg version="1.0" xmlns="http://www.w3.org/2000/svg"
 width="500.000000pt" height="500.000000pt" viewBox="0 0 500.000000 500.000000"
 preserveAspectRatio="xMidYMid meet">
<metadata>
Created by potrace 1.11, written by Peter Selinger 2001-2013
</metadata>
<g transform="translate(0.000000,500.000000) scale(0.100000,-0.100000)"
fill="#24292e" stroke="none">
<path fill="#f3752b" d="M1919 4113 c-5 -37 -2 -778 3 -786 5 -8 299 -11 1042 -12 l1034 -1
79 135 c43 75 83 143 88 153 11 18 71 123 102 178 11 20 52 91 91 158 40 68
79 136 87 152 l16 30 -1271 0 c-698 0 -1270 -3 -1271 -7z"/>
<path fill="#f79d5c" d="M523 2912 l-23 -3 0 -400 0 -399 1366 0 1366 0 19 23 c10 12 18 25
19 28 0 5 109 199 140 249 8 14 202 349 219 380 5 8 23 39 40 68 17 29 31 54
31 55 0 3 -3154 2 -3177 -1z"/>
<path fill="#f6f8fa" d="M1923 1681 c-5 -3 -8 -184 -8 -401 l1 -395 364 -3 365 -2 14 32 c8
18 22 44 31 58 9 14 28 45 42 70 14 25 101 176 193 335 92 160 169 295 172
301 4 11 -1159 16 -1174 5z"/>
</g>
</svg>
