<svg width="385" height="315" viewBox="0 0 385 315" fill="none" xmlns="http://www.w3.org/2000/svg">
<path d="M137.923 0.680328C137.438 4.27664 137.729 76.3001 138.215 77.0777C138.701 77.8553 167.277 78.1469 239.495 78.2441L339.997 78.3413L347.676 65.2196C351.856 57.9298 355.743 51.3203 356.229 50.3483C357.299 48.5988 363.13 38.393 366.144 33.0471C367.213 31.1032 371.198 24.2022 374.989 17.6899C378.877 11.0805 382.667 4.47104 383.445 2.91588L385 -5.34058e-05H261.462C193.618 -5.34058e-05 138.021 0.291534 137.923 0.680328Z" fill="#F8FAFE"/>
<path d="M2.23555 117.415L0 117.706V156.586V195.367H132.772H265.544L267.391 193.132C268.363 191.965 269.14 190.702 269.238 190.41C269.238 189.924 279.832 171.068 282.845 166.208C283.623 164.847 302.479 132.286 304.132 129.273C304.618 128.495 306.367 125.482 308.019 122.664C309.672 119.845 311.033 117.415 311.033 117.318C311.033 117.026 4.47109 117.123 2.23555 117.415Z" fill="#F8FAFE"/>
<path d="M138.312 237.065C137.826 237.357 137.535 254.949 137.535 276.041L137.632 314.434L173.012 314.726L208.489 314.92L209.85 311.81C210.627 310.061 211.988 307.533 212.863 306.173C213.738 304.812 215.584 301.799 216.945 299.369C218.306 296.939 226.762 282.262 235.704 266.808C244.647 251.256 252.131 238.134 252.422 237.551C252.811 236.482 139.77 235.996 138.312 237.065Z" fill="#F8FAFE"/>
<path d="M301.954 310.696C300.61 310.696 299.426 310.504 298.402 310.12C297.378 309.704 296.53 309.144 295.858 308.44C295.186 307.704 294.674 306.84 294.322 305.848C293.97 304.856 293.794 303.768 293.794 302.584C293.794 300.856 294.066 299.288 294.61 297.88C295.154 296.44 295.906 295.208 296.866 294.184C297.826 293.16 298.962 292.36 300.274 291.784C301.586 291.208 303.026 290.92 304.594 290.92C305.938 290.92 307.122 291.128 308.146 291.544C309.17 291.928 310.018 292.488 310.69 293.224C311.362 293.928 311.874 294.776 312.226 295.768C312.578 296.76 312.754 297.848 312.754 299.032C312.754 300.76 312.482 302.344 311.938 303.784C311.394 305.192 310.642 306.408 309.682 307.432C308.722 308.456 307.586 309.256 306.274 309.832C304.962 310.408 303.522 310.696 301.954 310.696ZM302.242 308.68C304.162 308.68 305.826 308.104 307.234 306.952C308.674 305.768 309.602 304.136 310.018 302.056C310.21 301.064 310.322 300.36 310.354 299.944C310.418 299.496 310.45 299.144 310.45 298.888C310.45 296.968 309.906 295.496 308.818 294.472C307.762 293.448 306.258 292.936 304.306 292.936C302.386 292.936 300.706 293.528 299.266 294.712C297.858 295.864 296.946 297.48 296.53 299.56C296.338 300.552 296.21 301.272 296.146 301.72C296.114 302.136 296.098 302.472 296.098 302.728C296.098 304.648 296.626 306.12 297.682 307.144C298.77 308.168 300.29 308.68 302.242 308.68ZM301.33 305.8H298.546L300.562 295.768H304.738C305.826 295.768 306.594 296.04 307.042 296.584C307.522 297.096 307.762 297.816 307.762 298.744C307.762 299.64 307.538 300.408 307.09 301.048C306.642 301.688 306.05 302.088 305.314 302.248L306.466 305.8H303.586L302.722 302.68H301.954L301.33 305.8ZM303.442 300.664C303.826 300.664 304.13 300.6 304.354 300.472C304.578 300.344 304.722 300.056 304.786 299.608C304.818 299.448 304.834 299.304 304.834 299.176C304.866 299.016 304.882 298.904 304.882 298.84C304.882 298.2 304.562 297.88 303.922 297.88H302.914L302.338 300.664H303.442Z" fill="#F8FAFE"/>
</svg>
